<svg width="10" height="10" viewBox="0 0 10 10" fill="none" xmlns="http://www.w3.org/2000/svg">
<path d="M1.08903 2.09833C1.05397 2.16574 1.03793 2.24141 1.04263 2.31724C1.04733 2.39307 1.07259 2.46619 1.1157 2.52875L4.8657 7.94542C4.90404 8.00077 4.95523 8.046 5.01488 8.07724C5.07453 8.10848 5.14086 8.1248 5.2082 8.1248C5.27553 8.1248 5.34186 8.10848 5.40151 8.07724C5.46116 8.046 5.51235 8.00077 5.5507 7.94542L9.3007 2.52875C9.34395 2.46624 9.36928 2.39309 9.37394 2.31721C9.3786 2.24134 9.36242 2.16564 9.32714 2.0983C9.29186 2.03097 9.23884 1.97457 9.17381 1.93521C9.10878 1.89585 9.03422 1.87503 8.9582 1.875L1.4582 1.875C1.38214 1.87499 1.30753 1.89579 1.24246 1.93516C1.17738 1.97453 1.12432 2.03096 1.08903 2.09833Z" fill="#195557"/>
</svg>
