<svg width="145" height="145" viewBox="0 0 145 145" fill="none" xmlns="http://www.w3.org/2000/svg">
<g filter="url(#filter0_dd_2555_13)">
<circle cx="74.613" cy="74.1176" r="46.1176" fill="#70908B"/>
</g>
<path d="M86.3369 69.4778C85.9835 68.6594 85.4739 67.9178 84.8366 67.2945C84.1989 66.6694 83.447 66.1726 82.6218 65.8312C81.7661 65.4757 80.8483 65.2938 79.9218 65.2959C78.6219 65.2959 77.3536 65.6519 76.2515 66.3242C75.9878 66.4851 75.7373 66.6617 75.5 66.8542C75.2627 66.6617 75.0122 66.4851 74.7485 66.3242C73.6464 65.6519 72.3781 65.2959 71.0782 65.2959C70.1422 65.2959 69.2352 65.4752 68.3782 65.8312C67.5503 66.1739 66.8041 66.667 66.1634 67.2945C65.5253 67.9171 65.0156 68.6589 64.6631 69.4778C64.2966 70.3294 64.1094 71.2338 64.1094 72.1646C64.1094 73.0426 64.2887 73.9575 64.6446 74.8883C64.9426 75.6661 65.3697 76.473 65.9155 77.2877C66.7804 78.5771 67.9695 79.9218 69.4461 81.285C71.893 83.5446 74.3161 85.1056 74.4189 85.1689L75.0438 85.5696C75.3207 85.7463 75.6767 85.7463 75.9535 85.5696L76.5784 85.1689C76.6813 85.1029 79.1018 83.5446 81.5513 81.285C83.0278 79.9218 84.217 78.5771 85.0818 77.2877C85.6276 76.473 86.0574 75.6661 86.3527 74.8883C86.7087 73.9575 86.888 73.0426 86.888 72.1646C86.8906 71.2338 86.7034 70.3294 86.3369 69.4778ZM75.5 83.484C75.5 83.484 66.1133 77.4696 66.1133 72.1646C66.1133 69.4778 68.336 67.2998 71.0782 67.2998C73.0057 67.2998 74.6773 68.3756 75.5 69.9471C76.3227 68.3756 77.9943 67.2998 79.9218 67.2998C82.664 67.2998 84.8867 69.4778 84.8867 72.1646C84.8867 77.4696 75.5 83.484 75.5 83.484Z" fill="#195557"/>
<path d="M79.9218 67.2998C77.9943 67.2998 76.3227 68.3756 75.5 69.9471C74.6773 68.3756 73.0057 67.2998 71.0782 67.2998C68.336 67.2998 66.1133 69.4777 66.1133 72.1646C66.1133 77.4696 75.5 83.484 75.5 83.484C75.5 83.484 84.8867 77.4696 84.8867 72.1646C84.8867 69.4777 82.664 67.2998 79.9218 67.2998Z" fill="black" fill-opacity="0.1"/>
<defs>
<filter id="filter0_dd_2555_13" x="0.495361" y="0" width="144.235" height="144.235" filterUnits="userSpaceOnUse" color-interpolation-filters="sRGB">
<feFlood flood-opacity="0" result="BackgroundImageFix"/>
<feColorMatrix in="SourceAlpha" type="matrix" values="0 0 0 0 0 0 0 0 0 0 0 0 0 0 0 0 0 0 127 0" result="hardAlpha"/>
<feOffset dx="-8" dy="-8"/>
<feGaussianBlur stdDeviation="10"/>
<feColorMatrix type="matrix" values="0 0 0 0 1 0 0 0 0 1 0 0 0 0 1 0 0 0 1 0"/>
<feBlend mode="normal" in2="BackgroundImageFix" result="effect1_dropShadow_2555_13"/>
<feColorMatrix in="SourceAlpha" type="matrix" values="0 0 0 0 0 0 0 0 0 0 0 0 0 0 0 0 0 0 127 0" result="hardAlpha"/>
<feOffset dx="4" dy="4"/>
<feGaussianBlur stdDeviation="10"/>
<feColorMatrix type="matrix" values="0 0 0 0 0.76 0 0 0 0 0.8 0 0 0 0 0.79375 0 0 0 1 0"/>
<feBlend mode="normal" in2="effect1_dropShadow_2555_13" result="effect2_dropShadow_2555_13"/>
<feBlend mode="normal" in="SourceGraphic" in2="effect2_dropShadow_2555_13" result="shape"/>
</filter>
</defs>
</svg>
