<svg width="142" height="145" viewBox="0 0 142 145" fill="none" xmlns="http://www.w3.org/2000/svg">
<g filter="url(#filter0_dd_2555_9)">
<circle cx="71.613" cy="74.1176" r="46.1176" fill="#FFEDCD"/>
</g>
<path d="M58.0132 73.8665C58.0132 73.8665 55.484 77.0012 55.7874 78.923L54.0683 80.44V81.3503C54.0683 81.3503 58.2146 83.0693 62.1589 81.8557V83.3728L62.2602 84.8898L64.2828 85.6987C64.2828 85.6987 66.6087 85.2945 67.2155 82.0578C67.2155 82.0578 69.6427 82.968 70.6543 85.5979L73.4863 85.3953C73.4863 85.3953 73.8904 83.8782 73.3849 82.8673L85.8245 82.6646L87.0382 83.7775V84.9911L87.645 85.6987H88.9599L89.9709 84.5864L88.8586 80.6421L89.7688 77.8101C89.7688 77.8101 79.251 84.1816 64.6875 75.889L63.5752 73.5624C63.5752 73.5624 61.2487 73.9672 61.35 74.574C61.35 74.574 60.844 72.9562 58.0126 73.8665H58.0132Z" fill="#9B9B9A"/>
<path d="M64.6122 68.4367C64.0928 69.802 63.5 70.4355 63.026 70.9161C62.8639 71.0831 62.6459 71.1845 62.4137 71.2009C62.1815 71.2172 61.9515 71.1474 61.7675 71.0047L61.0491 70.4428L58.9713 73.5096C58.8362 73.7091 58.6543 73.8724 58.4414 73.9853C58.2286 74.0981 57.9913 74.1571 57.7504 74.1571C57.7504 74.1571 56.129 76.142 55.5647 78.2871C55.4069 78.8884 55.0295 79.4097 54.5307 79.781L54.2995 79.954C54.2995 79.954 52.8735 81.1445 54.5756 81.6622C54.5756 81.6622 60.4149 83.5063 63.6511 80.9273" stroke="#195557" stroke-width="2" stroke-miterlimit="10" stroke-linecap="round" stroke-linejoin="round"/>
<path d="M74.8771 65.8074C74.8771 65.8074 73.7703 66.5519 72.9353 66.7109C72.5773 66.7795 72.2302 66.8505 71.8946 66.9233L69.9722 66.5155C69.0189 67.6047 67.6943 68.1236 66.7616 68.5326" stroke="#195557" stroke-width="2" stroke-miterlimit="10" stroke-linecap="round" stroke-linejoin="round"/>
<path d="M86.154 69.7517C84.9489 69.7517 84.6067 69.6588 83.927 69.1103C83.4 68.6863 82.9536 68.171 82.609 67.589L82.3615 67.1703C80.7589 67.1703 79.044 66.9761 77.4778 66.7188" stroke="#195557" stroke-width="2" stroke-miterlimit="10" stroke-linecap="round" stroke-linejoin="round"/>
<path d="M89.9715 75.6347C88.0928 74.9344 87.827 72.9556 87.2056 72.1546" stroke="#195557" stroke-width="2" stroke-miterlimit="10" stroke-linecap="round" stroke-linejoin="round"/>
<path d="M62.4004 83.6719L62.2627 83.9589C62.1737 84.1439 62.1331 84.3485 62.1446 84.5534C62.1562 84.7584 62.2196 84.9571 62.3288 85.1309C62.438 85.3047 62.5896 85.4479 62.7693 85.5472C62.9489 85.6465 63.1509 85.6986 63.3561 85.6987H64.3434C64.5622 85.6988 64.777 85.6398 64.965 85.5278C65.153 85.4159 65.3073 85.2552 65.4114 85.0627L67.1378 81.8691C67.1378 81.8691 69.2622 82.749 70.0226 84.925C70.1882 85.3989 70.6591 85.6987 71.1609 85.6987H72.3885C72.5586 85.6991 72.7269 85.6637 72.8825 85.5948C73.038 85.5258 73.1773 85.4249 73.2912 85.2986C73.4051 85.1722 73.4911 85.0233 73.5437 84.8615C73.5962 84.6997 73.6141 84.5286 73.5961 84.3594C73.5336 83.7963 73.4195 83.2126 73.212 82.9559C73.212 82.9559 82.4088 83.2211 85.3524 82.5845C85.9738 82.4498 86.5928 82.826 86.7299 83.4468C86.7966 83.7478 86.8361 84.0852 86.8161 84.4401C86.7772 85.1319 87.3337 85.6987 88.026 85.6987H88.2627C88.9448 85.6987 89.4763 85.2132 89.5206 84.5809C89.5953 83.5226 89.5121 81.9158 88.5813 80.6785C88.5813 80.6785 89.2688 80.0766 89.256 78.1985" stroke="#195557" stroke-width="2" stroke-miterlimit="10" stroke-linecap="round" stroke-linejoin="round"/>
<path d="M61.4247 74.8567C61.4247 74.8567 62.7135 72.8379 63.8641 74.6492C64.6402 75.8719 63.6772 77.7087 62.969 78.7743C62.8058 79.0192 62.5628 79.1999 62.2814 79.2858C61.9999 79.3717 61.6974 79.3573 61.4253 79.2452V79.2452" stroke="#195557" stroke-width="2" stroke-miterlimit="10" stroke-linecap="round" stroke-linejoin="round"/>
<path d="M66.4072 73.2663L69.4413 70.7632" stroke="#195557" stroke-width="2" stroke-miterlimit="10" stroke-linecap="round" stroke-linejoin="round"/>
<path d="M68.9103 76.6177L72.5511 75.3689" stroke="#195557" stroke-width="2" stroke-miterlimit="10" stroke-linecap="round" stroke-linejoin="round"/>
<path d="M72.1719 72.1546L75.8413 70.4598" stroke="#195557" stroke-width="2" stroke-miterlimit="10" stroke-linecap="round" stroke-linejoin="round"/>
<path d="M74.0063 78.6518L78.1642 78.1985" stroke="#195557" stroke-width="2" stroke-miterlimit="10" stroke-linecap="round" stroke-linejoin="round"/>
<path d="M79.3778 74.5018L83.5496 75.2494" stroke="#195557" stroke-width="2" stroke-miterlimit="10" stroke-linecap="round" stroke-linejoin="round"/>
<path d="M78.254 71.9877L81.5635 70.4689" stroke="#195557" stroke-width="2" stroke-miterlimit="10" stroke-linecap="round" stroke-linejoin="round"/>
<path d="M81.9531 78.832L85.7524 79.8496" stroke="#195557" stroke-width="2" stroke-miterlimit="10" stroke-linecap="round" stroke-linejoin="round"/>
<defs>
<filter id="filter0_dd_2555_9" x="-2.50464" y="0" width="144.235" height="144.235" filterUnits="userSpaceOnUse" color-interpolation-filters="sRGB">
<feFlood flood-opacity="0" result="BackgroundImageFix"/>
<feColorMatrix in="SourceAlpha" type="matrix" values="0 0 0 0 0 0 0 0 0 0 0 0 0 0 0 0 0 0 127 0" result="hardAlpha"/>
<feOffset dx="-8" dy="-8"/>
<feGaussianBlur stdDeviation="10"/>
<feColorMatrix type="matrix" values="0 0 0 0 1 0 0 0 0 1 0 0 0 0 1 0 0 0 1 0"/>
<feBlend mode="normal" in2="BackgroundImageFix" result="effect1_dropShadow_2555_9"/>
<feColorMatrix in="SourceAlpha" type="matrix" values="0 0 0 0 0 0 0 0 0 0 0 0 0 0 0 0 0 0 127 0" result="hardAlpha"/>
<feOffset dx="4" dy="4"/>
<feGaussianBlur stdDeviation="10"/>
<feColorMatrix type="matrix" values="0 0 0 0 0.76 0 0 0 0 0.8 0 0 0 0 0.79375 0 0 0 1 0"/>
<feBlend mode="normal" in2="effect1_dropShadow_2555_9" result="effect2_dropShadow_2555_9"/>
<feBlend mode="normal" in="SourceGraphic" in2="effect2_dropShadow_2555_9" result="shape"/>
</filter>
</defs>
</svg>
