<svg width="9" height="8" viewBox="0 0 9 8" fill="none" xmlns="http://www.w3.org/2000/svg">
<path d="M0.0890322 1.09833C0.0539732 1.16574 0.0379324 1.24141 0.0426302 1.31724C0.047328 1.39307 0.0725879 1.46619 0.115698 1.52875L3.8657 6.94542C3.90404 7.00077 3.95523 7.046 4.01488 7.07724C4.07453 7.10848 4.14086 7.1248 4.2082 7.1248C4.27553 7.1248 4.34186 7.10848 4.40151 7.07724C4.46116 7.046 4.51235 7.00077 4.5507 6.94542L8.3007 1.52875C8.34395 1.46624 8.36928 1.39309 8.37394 1.31721C8.3786 1.24134 8.36242 1.16564 8.32714 1.0983C8.29186 1.03097 8.23884 0.974568 8.17381 0.935207C8.10878 0.895846 8.03422 0.875026 7.9582 0.875L0.458199 0.875C0.382141 0.874987 0.307531 0.895793 0.242455 0.935161C0.177381 0.974529 0.124322 1.03096 0.0890322 1.09833Z" fill="#195557"/>
</svg>
